:FULLY-SPECIFIED
:FORCE-ALL-JOINTS-BE-3DOF
:DEGREES
1053
root 1.2068 15.1596 32.5514 5.60826 -3.92208 3.96789
lfemur 9.99805 0.565959 6.45399
ltibia 0.191307 0 0
lfoot -34.5198 -12.8116 -0.000255996
ltoes -38.719 0 0
rfemur -35.4584 -17.8891 -7.26493
rtibia 56.0315 -0 0
rfoot -24.9088 6.24936 -6.90606e-06
rtoes -46.1705 0 0
lowerback -2.0793 -0.0619283 -0.287308
upperback -0.557384 -0.0399879 -6.91861
thorax 0.589794 -0.022101 -7.01036
lowerneck -7.98419 0.870663 7.5128
upperneck 1.4275 0.381731 4.17591
head 1.80485 0.333316 0.0542086
lclavicle -3.99463e-15 4.48307e-14 0
lhumerus -68.5934 -44.3202 124.175
lradius 62.2102 -0 0
lwrist 29.0351 0 0
lhand 42.2869 28.8076 -9.21235e-06
lfingers 7.12502 0 0
lthumb 66.8852 43.8846 -1.10476e-05
rclavicle -3.99463e-15 4.48307e-14 0
rhumerus 2.52756 -26.7921 0.696609
rradius 31.2433 -0 0
rwrist -11.1392 0 0
rhand -34.6445 -47.3869 -3.04766e-05
rfingers 7.12502 0 0
rthumb -4.38342 -79.122 -2.79672e-05
1054
root 1.20869 15.16 32.5556 5.79745 -4.05355 4.09681
lfemur 10.3227 0.587438 6.66322
ltibia 0.28696 0 0
lfoot -35.5911 -13.2296 -0.000332788
ltoes -39.872 0 0
rfemur -36.5709 -18.4562 -7.52149
rtibia 57.5006 -0 0
rfoot -25.6977 6.4568 -9.83951e-06
rtoes -47.4702 0 0
lowerback -2.15536 -0.06401 -0.3042
upperback -0.576176 -0.0409701 -7.14684
thorax 0.613087 -0.0226178 -7.23733
lowerneck -8.249 0.897509 7.76178
upperneck 1.47354 0.392002 4.31696
head 1.86444 0.343202 0.0566297
lclavicle -3.10957e-15 4.33918e-14 0
lhumerus -71.0286 -43.7059 125.931
lradius 63.7616 -0 0
lwrist 29.9482 0 0
lhand 43.5228 29.7126 -1.29082e-05
lfingers 7.12502 0 0
lthumb 68.4818 45.1509 -1.46949e-05
rclavicle -3.10957e-15 4.33918e-14 0
rhumerus 2.61343 -27.6293 0.726211
rradius 32.2129 -0 0
rwrist -11.4984 0 0
rhand -35.7025 -48.7115 -4.04034e-05
rfingers 7.12502 0 0
rthumb -4.5313 -80.7606 -3.64783e-05
1055
root 1.21058 15.1604 32.5597 5.88451 -4.11363 4.15498
lfemur 10.4709 0.597757 6.7573
ltibia 0.382613 0 0
lfoot -36.079 -13.4205 -0.000379193
ltoes -40.3909 0 0
rfemur -37.0709 -18.7109 -7.64078
rtibia 58.1539 -0 0
rfoot -26.0539 6.55177 -1.24367e-05
rtoes -48.0482 0 0
lowerback -2.19238 -0.0648086 -0.314798
upperback -0.584645 -0.0410701 -7.25092
thorax 0.625169 -0.0226592 -7.33917
lowerneck -8.36896 0.908868 7.8761
upperneck 1.49218 0.395633 4.38187
head 1.89069 0.347108 0.0577417
lclavicle -2.2245e-15 4.1953e-14 0
lhumerus -72.1125 -43.4353 126.673
lradius 64.4509 -0 0
lwrist 30.364 0 0
lhand 44.0798 30.1245 -1.59679e-05
lfingers 7.12502 0 0
lthumb 69.1888 45.7211 -1.73014e-05
rclavicle -2.2245e-15 4.1953e-14 0
rhumerus 2.64898 -28.0064 0.742306
rradius 32.6522 -0 0
rwrist -11.6601 0 0
rhand -36.1807 -49.3015 -4.76503e-05
rfingers 7.12502 0 0
rthumb -4.59869 -81.4751 -4.26933e-05
1056
root 1.21248 15.1609 32.5638 5.8811 -4.1105 4.15052
lfemur 10.4629 0.598182 6.74952
ltibia 0.478267 0 0
lfoot -36.0595 -13.4108 -0.000399115
ltoes -40.3606 0 0
rfemur -37.0371 -18.6909 -7.63799
rtibia 58.1151 -0 0
rfoot -26.0306 6.54717 -1.47156e-05
rtoes -48.0063 0 0
lowerback -2.19471 -0.0644797 -0.319668
upperback -0.583978 -0.0404095 -7.2451
thorax 0.627243 -0.0222909 -7.33034
lowerneck -8.36078 0.906577 7.87119
upperneck 1.48667 0.39344 4.37934
head 1.88746 0.345749 0.0576958
lclavicle -1.33944e-15 4.05142e-14 0
lhumerus -72.0545 -43.4511 126.635
lradius 64.4145 -0 0
lwrist 30.345 0 0
lhand 44.0511 30.105 -1.84123e-05
lfingers 7.12502 0 0
lthumb 69.1519 45.6918 -1.90207e-05
rclavicle -1.33944e-15 4.05142e-14 0
rhumerus 2.6398 -27.9805 0.746163
rradius 32.6287 -0 0
rwrist -11.6472 0 0
rhand -36.1546 -49.2614 -5.27505e-05
rfingers 7.12502 0 0
rthumb -4.59483 -81.4293 -4.72502e-05
1057
root 1.21437 15.1613 32.5679 5.80114 -4.05394 4.0931
lfemur 10.3228 0.590239 6.65563
ltibia 0.57392 0 0
lfoot -35.6106 -13.2313 -0.000396995
ltoes -39.8656 0 0
rfemur -36.5517 -18.4387 -7.53189
rtibia 57.4903 -0 0
rfoot -25.6864 6.45832 -1.66995e-05
rtoes -47.4398 0 0
lowerback -2.16762 -0.06321 -0.319575
upperback -0.575597 -0.0391287 -7.14632
thorax 0.620793 -0.0215885 -7.22796
lowerneck -8.24431 0.892786 7.76538
upperneck 1.46091 0.386371 4.31977
head 1.85939 0.339968 0.05668
lclavicle -4.54371e-16 3.90754e-14 0
lhumerus -71.0296 -43.7098 125.935
lradius 63.7636 -0 0
lwrist 29.9579 0 0
lhand 43.5267 29.7205 -2.02823e-05
lfingers 7.12502 0 0
lthumb 68.4849 45.155 -1.99942e-05
rclavicle -4.54371e-16 3.90754e-14 0
rhumerus 2.59302 -27.6139 0.739511
rradius 32.2136 -0 0
rwrist -11.4867 0 0
rhand -35.7019 -48.6882 -5.61452e-05
rfingers 7.12502 0 0
rthumb -4.53075 -80.7391 -5.0591e-05
1058
root 1.21626 15.1617 32.572 5.65989 -3.95459 3.99326
lfemur 10.0766 0.575609 6.49277
ltibia 0.669573 0 0
lfoot -34.8119 -12.9153 -0.000377592
ltoes -38.9903 0 0
rfemur -35.699 -17.9995 -7.34326
rtibia 56.3755 -0 0
rfoot -25.0829 6.30196 -1.84154e-05
rtoes -46.4403 0 0
lowerback -2.11692 -0.0612028 -0.315405
upperback -0.561059 -0.0373768 -6.97305
thorax 0.607466 -0.0206322 -7.05067
lowerneck -8.04115 0.869814 7.57867
upperneck 1.41916 0.375441 4.21452
head 1.8115 0.330678 0.0549027
lclavicle 4.30693e-16 3.76366e-14 0
lhumerus -69.1924 -44.1751 124.624
lradius 62.5947 -0 0
lwrist 29.2724 0 0
lhand 42.5948 29.0399 -2.16353e-05
lfingers 7.12502 0 0
lthumb 67.2835 44.2002 -2.03549e-05
rclavicle 4.30693e-16 3.76366e-14 0
rhumerus 2.51665 -26.9714 0.724356
rradius 31.4804 -0 0
rwrist -11.2077 0 0
rhand -34.9015 -47.674 -5.82052e-05
rfingers 7.12502 0 0
rthumb -4.41852 -79.4933 -5.30309e-05
1059
root 1.21816 15.1622 32.5762 5.47308 -3.82347 3.86187
lfemur 9.7511 0.556029 6.27862
ltibia 0.765227 0 0
lfoot -33.744 -12.4974 -0.000345821
ltoes -37.8198 0 0
rfemur -34.5648 -17.4194 -7.09365
rtibia 54.8644 -0 0
rfoot -24.2832 6.09535 -1.98919e-05
rtoes -45.0992 0 0
lowerback -2.04863 -0.0586663 -0.308107
upperback -0.541966 -0.0353038 -6.74433
thorax 0.588982 -0.0195026 -6.81767
lowerneck -7.77358 0.840042 7.33165
upperneck 1.36574 0.361686 4.07533
head 1.74899 0.318812 0.052579
lclavicle 1.31576e-15 3.61977e-14 0
lhumerus -66.6962 -44.812 122.719
lradius 61.0001 -0 0
lwrist 28.3593 0 0
lhand 41.3442 28.1337 -2.25426e-05
lfingers 7.12502 0 0
lthumb 65.6376 42.9171 -2.02345e-05
rclavicle 1.31576e-15 3.61977e-14 0
rhumerus 2.41897 -26.1194 0.702825
rradius 30.5038 -0 0
rwrist -10.8405 0 0
rhand -33.8333 -46.311 -5.92556e-05
rfingers 7.12502 0 0
rthumb -4.27057 -77.7701 -5.48069e-05
1060
root 1.22005 15.1626 32.5803 5.25628 -3.67144 3.70971
lfemur 9.37298 0.533221 6.03065
ltibia 0.86088 0 0
lfoot -32.4888 -12.0116 -0.000306612
ltoes -36.4407 0 0
rfemur -33.236 -16.7449 -6.80433
rtibia 53.0544 -0 0
rfoot -23.3504 5.85559 -2.11587e-05
rtoes -43.5103 0 0
lowerback -1.96873 -0.0558042 -0.298641
upperback -0.519904 -0.0330542 -6.479
thorax 0.567049 -0.0182774 -6.54795
lowerneck -7.46365 0.805822 7.04477
upperneck 1.30495 0.346122 3.91381
head 1.67697 0.30529 0.0499206
lclavicle 2.20082e-15 3.47589e-14 0
lhumerus -63.707 -45.579 120.221
lradius 59.0765 -0 0
lwrist 27.29 0 0
lhand 39.8654 27.0728 -2.30897e-05
lfingers 7.12502 0 0
lthumb 63.6416 41.3977 -1.97688e-05
rclavicle 2.20082e-15 3.47589e-14 0
rhumerus 2.30806 -25.1246 0.677035
rradius 29.3592 -0 0
rwrist -10.4148 0 0
rhand -32.5785 -44.6937 -5.95964e-05
rfingers 7.12502 0 0
rthumb -4.09922 -75.652 -5.61143e-05
1061
root 1.22194 15.163 32.5844 5.02443 -3.50893 3.54706
lfemur 8.96783 0.508836 5.76563
ltibia 0.956533 0 0
lfoot -31.1283 -11.4909 -0.000264789
ltoes -34.9411 0 0
rfemur -31.7995 -16.0208 -6.49553
rtibia 51.0506 -0 0
rfoot -22.3467 5.59906 -2.22451e-05
rtoes -41.7714 0 0
lowerback -1.88295 -0.052809 -0.287947
upperback -0.496387 -0.0307623 -6.19516
thorax 0.543315 -0.0170289 -6.25974
lowerneck -7.13249 0.769408 6.73761
upperneck 1.24082 0.329714 3.7411
head 1.60035 0.290986 0.0471274
lclavicle 3.08589e-15 3.33201e-14 0
lhumerus -60.4111 -46.4227 117.144
lradius 56.9305 -0 0
lwrist 26.1352 0 0
lhand 38.2516 25.9272 -2.33755e-05
lfingers 7.12502 0 0
lthumb 61.4016 39.7367 -1.91018e-05
rclavicle 3.08589e-15 3.33201e-14 0
rhumerus 2.19141 -24.0527 0.648999
rradius 28.1217 -0 0
rwrist -9.95927 0 0
rhand -31.2186 -42.9209 -5.95168e-05
rfingers 7.12502 0 0
rthumb -3.91625 -73.2365 -5.71324e-05
1062
root 1.22384 15.1635 32.5885 4.79144 -3.34569 3.38354
lfemur 8.55967 0.484413 5.49923
ltibia 1.05219 0 0
lfoot -29.7436 -10.9663 -0.000224978
ltoes -33.4093 0 0
rfemur -30.3406 -15.2901 -6.18599
rtibia 48.9662 -0 0
rfoot -21.3315 5.3411 -2.31798e-05
rtoes -39.9831 0 0
lowerback -1.79663 -0.0498573 -0.276915
upperback -0.472824 -0.0285494 -5.90971
thorax 0.519323 -0.0158221 -5.97005
lowerneck -6.79987 0.732907 6.42855
upperneck 1.1771 0.313357 3.56757
head 1.52365 0.276709 0.0443829
lclavicle 3.97095e-15 3.18813e-14 0
lhumerus -57.0123 -47.2759 113.545
lradius 54.6808 -0 0
lwrist 24.9637 0 0
lhand 36.5974 24.765 -2.3511e-05
lfingers 7.12502 0 0
lthumb 59.039 38.0312 -1.83864e-05
rclavicle 3.97095e-15 3.18813e-14 0
rhumerus 2.07583 -22.9671 0.620572
rradius 26.8647 -0 0
rwrist -9.50091 0 0
rhand -29.8339 -41.0953 -5.93011e-05
rfingers 7.12502 0 0
rthumb -3.73263 -70.6445 -5.80443e-05
1063
root 1.22573 15.1639 32.5926 4.57011 -3.19067 3.22798
lfemur 8.17069 0.461365 5.24583
ltibia 1.14784 0 0
lfoot -28.4131 -10.4664 -0.000191532
ltoes -31.9319 0 0
rfemur -28.941 -14.5927 -5.89265
rtibia 46.9213 -0 0
rfoot -20.3612 5.09578 -2.39903e-05
rtoes -38.2474 0 0
lowerback -1.7147 -0.0471081 -0.266374
upperback -0.450502 -0.0265225 -5.63821
thorax 0.496495 -0.0147148 -5.69455
lowerneck -6.48396 0.698254 6.13445
upperneck 1.11719 0.297868 3.40275
head 1.45104 0.263198 0.0418522
lclavicle 4.85602e-15 3.04425e-14 0
lhumerus -53.7212 -48.0612 109.565
lradius 52.4576 -0 0
lwrist 23.841 0 0
lhand 34.997 23.6514 -2.36171e-05
lfingers 7.12502 0 0
lthumb 56.6903 36.3783 -1.77819e-05
rclavicle 4.85602e-15 3.04425e-14 0
rhumerus 1.96728 -21.9279 0.593423
rradius 25.6587 -0 0
rwrist -9.06452 0 0
rhand -28.5026 -39.3208 -5.92297e-05
rfingers 7.12502 0 0
rthumb -3.55844 -68.0225 -5.90481e-05
1064
root 1.22762 15.1643 32.5967 4.37205 -3.05199 3.0884
lfemur 7.82112 0.440972 5.01854
ltibia 1.24349 0 0
lfoot -27.2114 -10.0175 -0.000168496
ltoes -30.5923 0 0
rfemur -27.6776 -13.9656 -5.63075
rtibia 45.039 -0 0
rfoot -19.4879 4.87593 -2.47025e-05
rtoes -36.6645 0 0
lowerback -1.64161 -0.0447033 -0.257089
upperback -0.43059 -0.0247751 -5.39482
thorax 0.476127 -0.0137572 -5.44746
lowerneck -6.20126 0.667211 5.8707
upperneck 1.06416 0.283983 3.25531
head 1.38627 0.25112 0.0396822
lclavicle 5.74108e-15 2.90037e-14 0
lhumerus -50.7406 -48.7067 105.458
lradius 50.3978 -0 0
lwrist 22.8286 0 0
lhand 33.5421 22.647 -2.38211e-05
lfingers 7.12502 0 0
lthumb 54.5029 34.8733 -1.74498e-05
rclavicle 5.74108e-15 2.90037e-14 0
rhumerus 1.87099 -20.9914 0.569041
rradius 24.5701 -0 0
rwrist -8.6728 0 0
rhand -27.2987 -37.7008 -5.9574e-05
rfingers 7.12502 0 0
rthumb -3.40281 -65.5405 -6.03603e-05
1065
root 1.22952 15.1648 32.6009 4.20787 -2.9371 2.97211
lfemur 7.52954 0.424408 4.82933
ltibia 1.33915 0 0
lfoot -26.2087 -9.64358 -0.000159609
ltoes -29.4697 0 0
rfemur -26.6223 -13.443 -5.41408
rtibia 43.4413 -0 0
rfoot -18.7604 4.69326 -2.53416e-05
rtoes -35.3314 0 0
lowerback -1.58146 -0.0427708 -0.249774
upperback -0.414152 -0.0233895 -5.19247
thorax 0.459413 -0.0129939 -5.24181
lowerneck -5.96689 0.641385 5.65139
upperneck 1.02075 0.272371 3.13314
head 1.33278 0.241081 0.0380058
lclavicle 6.62615e-15 2.75648e-14 0
lhumerus -48.2546 -49.1671 101.613
lradius 48.6407 -0 0
lwrist 21.9839 0 0
lhand 32.3202 21.8089 -2.42537e-05
lfingers 7.12502 0 0
lthumb 52.6288 33.6074 -1.75486e-05
rclavicle 6.62615e-15 2.75648e-14 0
rhumerus 1.79154 -20.2097 0.548766
rradius 23.6611 -0 0
rwrist -8.34653 0 0
rhand -26.2921 -36.335 -6.05912e-05
rfingers 7.12502 0 0
rthumb -3.27409 -63.3837 -6.22089e-05
